<svg xmlns="http://www.w3.org/2000/svg" viewBox="0 0 160 160">
	<path fill="currentColor" d="M79.99,1.98C35.82,1.98,0,37.79,0,81.98c0,35.34,22.92,65.33,54.71,75.91,4,.73,5.46-1.74,5.46-3.86,0-1.9-.07-6.93-.11-13.61-22.25,4.83-26.95-10.72-26.95-10.72-3.64-9.24-8.88-11.7-8.88-11.7-7.26-4.96,.55-4.86,.55-4.86,8.03,.57,12.25,8.24,12.25,8.24,7.14,12.23,18.72,8.7,23.28,6.65,.73-5.17,2.79-8.7,5.08-10.69-17.76-2.02-36.44-8.88-36.44-39.54,0-8.73,3.12-15.87,8.23-21.47-.82-2.02-3.57-10.16,.78-21.17,0,0,6.72-2.15,22,8.2,6.38-1.77,13.22-2.66,20.03-2.69,6.79,.03,13.64,.92,20.03,2.69,15.27-10.35,21.98-8.2,21.98-8.2,4.36,11.01,1.62,19.15,.8,21.17,5.13,5.59,8.22,12.73,8.22,21.47,0,30.73-18.7,37.5-36.53,39.48,2.87,2.47,5.43,7.35,5.43,14.81,0,10.69-.1,19.32-.1,21.95,0,2.14,1.44,4.63,5.5,3.85,31.76-10.6,54.66-40.56,54.66-75.9C160,37.79,124.18,1.98,79.99,1.98Z"/>
</svg>
