<svg xmlns="http://www.w3.org/2000/svg" viewBox="0 0 160 160">
	<g fill="currentColor" >
		<polygon points="126.32 103.14 140.53 103.14 140.53 160 12.59 160 12.59 103.14 26.81 103.14 26.81 145.78 126.32 145.78 126.32 103.14"/>
		<path d="M42.3,98.91l69.82,14.67,2.93-13.96-69.82-14.68-2.93,13.96Zm9.24-33.43l64.68,30.12,6.02-12.93L57.56,52.55l-6.02,12.93Zm17.9-31.73l54.83,45.66,9.13-10.97L78.57,22.79l-9.13,10.96ZM104.83,0l-11.45,8.52,42.58,57.25,11.45-8.52L104.83,0ZM41.02,131.57H112.1v-14.22H41.02v14.22Z"/>
	</g>
</svg>
