<svg xmlns="http://www.w3.org/2000/svg" viewBox="0 0 160 160">
  <path fill="currentColor" d="M143.62,47.3606c.0975,1.41.0975,2.821.0975,4.2446,0,43.3751-33.02,93.4-93.4,93.4v-.026A92.93,92.93,0,0,1,0,130.2629a66.7738,66.7738,0,0,0,7.8131.4745,65.9157,65.9157,0,0,0,40.7687-14.0792A32.8673,32.8673,0,0,1,17.9143,93.8623a32.72,32.72,0,0,0,14.82-.5655A32.8289,32.8289,0,0,1,6.4026,61.1213v-.416a32.6187,32.6187,0,0,0,14.8982,4.1081,32.8671,32.8671,0,0,1-10.16-43.83,93.168,93.168,0,0,0,67.653,34.2945,32.8571,32.8571,0,0,1,55.94-29.94A65.8682,65.8682,0,0,0,155.58,17.3691a32.9485,32.9485,0,0,1-14.43,18.1548A65.2816,65.2816,0,0,0,160,30.3563,66.6887,66.6887,0,0,1,143.62,47.3606Z"/>
</svg>
