<svg xmlns="http://www.w3.org/2000/svg" viewBox="0 0 160 160">
	<rect width="160" height="160"/>
	<g fill="#f1f1f1">
		<path d="M41.35,113.19c-1.35,0-2.54-.37-3.59-1.1-1.05-.73-1.85-2.11-2.4-4.13-.55-2.02-.77-4.98-.65-8.87l.31-34.31c.15-4.82,.67-8.47,1.57-10.96,.9-2.48,2.41-4.21,4.54-5.16,2.13-.96,5.1-1.53,8.94-1.71l2.25-.09c8.71-.42,15.21,1.29,19.49,5.12,4.28,3.83,6.42,9.01,6.42,15.54,0,2.84-.31,5.19-.92,7.05-.61,1.86-1.44,3.43-2.49,4.72-1.05,1.29-2.25,2.51-3.59,3.68-.63,.51-1.12,1.05-1.48,1.62-.36,.57-.54,1.24-.54,2.02,0,.66,.09,1.37,.27,2.13s.48,1.59,.9,2.49c.57,1.14,1.33,2.44,2.29,3.91,.96,1.47,2.35,3.44,4.18,5.93,1.56,2.01,2.34,4.06,2.34,6.15,0,1.74-.58,3.23-1.75,4.49-1.17,1.26-2.77,1.89-4.81,1.89-2.57,0-4.73-1.05-6.47-3.14-1.32-1.53-2.59-3.31-3.82-5.34-1.23-2.04-2.29-3.95-3.19-5.75-.9-1.8-1.56-3.1-1.98-3.91-.78-1.56-1.5-2.6-2.18-3.12-.67-.52-1.57-.79-2.67-.79h-.22c-1.29,0-2.24,.37-2.85,1.1-.61,.73-.96,2.03-1.06,3.88l-.31,9.61c-.36,4.7-2.53,7.05-6.51,7.05Zm13.74-53.35h-.54c-2.36,0-3.9,.48-4.6,1.44-.7,.96-1.06,2.66-1.06,5.12v1.08c0,3.68,.54,6.05,1.62,7.1,1.08,1.05,2.48,1.57,4.22,1.57h.36c5.33,0,7.99-2.62,7.99-7.86,0-5.63-2.66-8.44-7.99-8.44Z"/>
		<path d="M90.48,113.45c-1.44,0-2.69-.39-3.75-1.17-1.06-.78-1.9-2.36-2.51-4.74-.61-2.38-1-5.93-1.15-10.67l-.85-32.24c-.15-5,.27-8.81,1.26-11.43,.99-2.62,2.56-4.41,4.72-5.37,2.16-.96,4.92-1.44,8.31-1.44l4.36,.18c8.05,.06,14.15,1.92,18.28,5.59,4.13,3.67,6.2,8.63,6.2,14.89,0,6.95-1.82,12.23-5.46,15.85-3.64,3.62-8.72,5.67-15.25,6.15l-.76,.09c-2.69,.18-4.54,.77-5.55,1.77-1,1-1.52,2.96-1.55,5.86l.27,6.69c-.03,3.98-.66,6.64-1.89,7.97-1.23,1.33-2.78,2-4.67,2Zm17.8-51.84c-1.51-1.42-3.75-2-6.71-1.73l-.45,.05c-1.92,.15-3.2,.67-3.86,1.55-.66,.88-.99,2.57-.99,5.05v1.93c0,2.81,.37,4.68,1.12,5.59,.75,.91,1.87,1.43,3.37,1.55l.49,.04c3.11,.21,5.44-.42,6.98-1.89,1.54-1.47,2.31-3.47,2.31-6.02s-.76-4.71-2.27-6.13Z"/>
	</g>
	<path fill="#f37268" d="M125.23,107.42c.05,.49,.18,2.67-1.26,4.36-2.77,3.22-8.38,1.19-8.74,1.06-.99-.38-2.04-.77-2.79-1.82-1.53-2.13-.66-5.28,.58-7.14,1.08-1.63,3.39-3.69,6.03-3.32,1.78,.25,2.94,1.5,3.92,2.55,.87,.94,2.08,2.25,2.27,4.32Z"/>
</svg>
