<svg xmlns="http://www.w3.org/2000/svg" viewBox="0 0 160 160">
	<rect x="0" y="0" width="160" height="160" rx="16" ry="16"/>
	<g>
		<g>
			<path fill="#ff0000" d="M55.7,26.14c-16.12,6.48-29.15,21.36-33.81,38.84-4.68,17.57-.43,35.98,9.76,49.67-5.06-7.12-8.32-15.45-8.85-24.62-.79-13.7,4.74-25.44,12.76-34.65,2.03-9.59,6.27-18.12,13-24.19,2.13-1.92,4.53-3.61,7.14-5.05"/>
			<path fill="#0000ff" d="M137.68,95.25c-1.91,6.59-5.01,12.85-9.29,18.39-10.44,13.5-27.2,21.8-43.1,21.98-3.29,.64-6.5,.91-9.55,.91-14.44,0-25.55-5.97-27.04-6.8-6.7-3.74-12.46-8.93-17.04-15.08,10.29,14.47,28.02,23.93,45.35,25.2,1.39,.1,2.79,.15,4.21,.15,21.39,0,45.48-11.64,54.07-35.58,1.09-3.03,1.88-6.09,2.39-9.17"/>
			<path fill="#ff00ff" d="M35.57,55.38c-8.02,9.21-13.56,20.95-12.76,34.65,.53,9.17,3.79,17.5,8.85,24.62,4.57,6.14,10.34,11.34,17.04,15.08,1.49,.83,12.61,6.8,27.04,6.8,3.06,0,6.26-.27,9.55-.91-.18,0-.36,0-.54,0-4.62,0-9.16-.69-13.44-2.14-27.35-9.25-41.95-48.69-35.74-78.11"/>
			<path fill="#00ff00" d="M81.01,20c-9.23,0-18.07,2.13-25.3,6.14,5.56-2.24,11.49-3.47,17.56-3.47,.25,0,.5,0,.75,0,10.98,.18,20.85,4.42,28.99,11.09,2.16,.76,4.34,1.71,6.51,2.87,19.65,10.55,32.16,34.82,28.17,58.62,5.73-19.75,.83-42.51-14.53-58-11.75-11.85-27.44-17.25-42.14-17.25"/>
			<path fill="#ffff00" d="M73.27,22.67c-6.08,0-12,1.24-17.56,3.47-2.61,1.44-5,3.13-7.14,5.05-6.73,6.07-10.97,14.59-13,24.19,8.11-9.32,18.76-16.05,27.98-19.62,2.82-1.09,11.93-4.67,23.28-4.67,5.07,0,10.58,.71,16.18,2.68-8.14-6.67-18-10.9-28.99-11.09-.25,0-.5,0-.75,0"/>
			<path fill="#00ffff" d="M103,33.76c16.26,13.32,25.6,36.36,23.1,56.16-1.83,14.5-10.26,32.02-27.71,41.11-4.43,2.31-8.85,3.76-13.11,4.59,15.9-.18,32.66-8.48,43.1-21.98,4.28-5.54,7.38-11.8,9.29-18.39,3.99-23.8-8.51-48.07-28.17-58.62-2.17-1.16-4.35-2.11-6.51-2.87"/>
		</g>
		<circle fill="#131517" cx="80" cy="80" r="56"/>
		<g fill="#ffffff" >
			<path d="M75.89,64.68l-2.1,7.88c-1.29-1.17-2.86-1.99-4.67-1.99-3.15,0-5.2,1.34-5.2,6.66v16.59h-8.06v-30.67h8.06v2.04c1.4-1.46,3.45-2.69,6.31-2.69,2.63,0,4.61,1.05,5.67,2.16Z"/>
			<path d="M107.31,78.88c0,9.17-4.32,15.6-11.92,15.6-2.69,0-5.02-1.05-6.48-2.39v8.99l-8.06,4.03V63.16h8.06v1.93c1.52-1.34,3.56-2.57,6.48-2.57,6.54,0,11.92,4.91,11.92,16.36Zm-8.18,.18c0-6.31-2.1-8.94-5.26-8.94-2.51,0-3.8,1.05-4.96,2.57v11.56c1.23,1.7,3.1,2.63,5.43,2.63,3.1,0,4.79-2.69,4.79-7.83Z"/>
		</g>
	</g>
</svg>
