<svg xmlns="http://www.w3.org/2000/svg" viewBox="0 0 512 512">
  <rect x="0" y="0" width="512" height="512"/>
	<circle cx="256" cy="256" r="179.2" fill="#131517" stroke="#ffffff" stroke-miterlimit="10" stroke-width="6.4"/>
	<g fill="#ffffff">
		<path d="M243.01,210.79l-6.73,25.23c-4.11-3.74-9.16-6.36-14.96-6.36-10.09,0-16.63,4.3-16.63,21.31v53.08h-25.79v-98.13h25.79v6.54c4.49-4.67,11.02-8.6,20.19-8.6,8.41,0,14.76,3.37,18.13,6.92Z"/>
		<path d="M343.54,256.21c0,29.34-13.83,49.91-38.13,49.91-8.59,0-16.07-3.36-20.74-7.66v28.78l-25.79,12.9V205.93h25.79v6.17c4.86-4.3,11.4-8.22,20.74-8.22,20.94,0,38.13,15.7,38.13,52.34Zm-26.17,.56c0-20.19-6.72-28.6-16.82-28.6-8.04,0-12.15,3.36-15.89,8.22v37.01c3.92,5.42,9.91,8.41,17.38,8.41,9.91,0,15.32-8.6,15.32-25.04Z"/>
	</g>
</svg>
