<svg xmlns="http://www.w3.org/2000/svg" viewBox="0 0 512 512">
  <circle cx="256" cy="256" r="213.33" fill="#ffffff"/>
  <circle cx="256" cy="256" r="196.67" fill="#131517"/>
  <g fill="#ffffff">
    <path d="M241.61,205.93l-7.45,27.94c-4.55-4.14-10.14-7.04-16.56-7.04-11.17,0-18.42,4.76-18.42,23.6v58.78h-28.56v-108.67h28.56v7.25c4.97-5.18,12.21-9.52,22.35-9.52,9.31,0,16.35,3.73,20.08,7.66Z"/>
    <path d="M352.94,256.23c0,32.49-15.32,55.26-42.22,55.26-9.52,0-17.8-3.72-22.97-8.49v31.87l-28.56,14.28V200.55h28.56v6.83c5.38-4.76,12.62-9.11,22.97-9.11,23.19,0,42.22,17.39,42.22,57.96Zm-28.98,.62c0-22.35-7.45-31.67-18.62-31.67-8.9,0-13.45,3.72-17.59,9.11v40.98c4.35,6.01,10.97,9.32,19.25,9.32,10.97,0,16.97-9.52,16.97-27.73Z"/>
  </g>
</svg>
