<svg xmlns="http://www.w3.org/2000/svg" viewBox="0 0 512 512">
  <circle cx="256" cy="256" r="256" fill="#ffffff"/>
  <circle cx="256" cy="256" r="236" fill="#131517"/>
  <g fill="#ffffff">
    <path d="M238.73,195.92l-8.94,33.53c-5.46-4.97-12.17-8.45-19.87-8.45-13.4,0-22.1,5.71-22.1,28.32v70.54h-34.28V189.46h34.28v8.7c5.96-6.21,14.65-11.43,26.83-11.43,11.17,0,19.62,4.48,24.09,9.19Z"/>
    <path d="M372.33,256.27c0,38.99-18.38,66.32-50.67,66.32-11.42,0-21.36-4.47-27.56-10.18v38.25l-34.28,17.14V189.46h34.28v8.2c6.45-5.71,15.15-10.93,27.56-10.93,27.82,0,50.67,20.86,50.67,69.55Zm-34.77,.75c0-26.83-8.94-38-22.35-38-10.68,0-16.15,4.47-21.11,10.93v49.17c5.22,7.21,13.16,11.18,23.1,11.18,13.16,0,20.36-11.43,20.36-33.28Z"/>
  </g>
</svg>
