<svg xmlns="http://www.w3.org/2000/svg" viewBox="0 0 160 160">
  <circle fill="#ffffff" cx="80" cy="80" r="80"/>
  <g>
    <g>
      <path fill="#ff0000" d="M51.65,17.16c-18.8,7.56-34.01,24.92-39.44,45.31-5.46,20.49-.51,41.97,11.38,57.95-5.9-8.3-9.71-18.02-10.33-28.72-.92-15.99,5.53-29.68,14.89-40.43,2.36-11.19,7.31-21.14,15.17-28.22,2.49-2.24,5.28-4.21,8.33-5.9"/>
      <path fill="#0000ff" d="M147.29,97.79c-2.23,7.69-5.84,14.99-10.84,21.45-12.18,15.75-31.73,25.43-50.29,25.65-3.84,.75-7.58,1.06-11.15,1.06-16.84,0-29.8-6.96-31.55-7.94-7.81-4.36-14.54-10.42-19.87-17.59,12.01,16.89,32.69,27.92,52.91,29.4,1.62,.12,3.26,.18,4.91,.18,24.96,0,53.06-13.58,63.08-41.51,1.27-3.53,2.19-7.11,2.79-10.69"/>
      <path fill="#ff00ff" d="M28.16,51.28c-9.36,10.75-15.81,24.44-14.89,40.43,.62,10.7,4.42,20.42,10.33,28.72,5.33,7.17,12.06,13.23,19.87,17.59,1.74,.97,14.71,7.94,31.55,7.94,3.56,0,7.31-.31,11.15-1.06-.21,0-.42,0-.63,0-5.39,0-10.68-.8-15.68-2.49-31.91-10.79-48.94-56.81-41.69-91.13"/>
      <path fill="#00ff00" d="M81.17,10c-10.77,0-21.08,2.49-29.52,7.16,6.49-2.61,13.4-4.05,20.49-4.05,.29,0,.58,0,.87,0,12.81,.21,24.32,5.16,33.82,12.94,2.53,.89,5.06,1.99,7.6,3.35,22.93,12.31,37.52,40.63,32.86,68.39,6.69-23.04,.97-49.59-16.96-67.66-13.71-13.82-32.01-20.13-49.16-20.13"/>
      <path fill="#ffff00" d="M72.15,13.11c-7.09,0-14.01,1.44-20.49,4.05-3.04,1.69-5.84,3.66-8.33,5.9-7.86,7.08-12.8,17.03-15.17,28.22,9.46-10.87,21.89-18.72,32.65-22.9,3.29-1.27,13.92-5.45,27.16-5.45,5.91,0,12.34,.83,18.87,3.12-9.49-7.78-21-12.72-33.82-12.94-.29,0-.58,0-.87,0"/>
      <path fill="#00ffff" d="M106.84,26.06c18.97,15.54,29.86,42.42,26.95,65.52-2.13,16.92-11.96,37.35-32.33,47.96-5.17,2.69-10.32,4.39-15.29,5.36,18.55-.22,38.1-9.89,50.29-25.65,5-6.46,8.61-13.76,10.84-21.45,4.66-27.76-9.93-56.08-32.86-68.39-2.53-1.36-5.07-2.46-7.6-3.35"/>
    </g>
    <circle fill="#131517" cx="80" cy="80" r="65.33"/>
    <g fill="#ffffff" >
      <path d="M75.2,62.13l-2.45,9.2c-1.5-1.36-3.34-2.32-5.45-2.32-3.68,0-6.06,1.57-6.06,7.77v19.35h-9.4V60.36h9.4v2.39c1.64-1.7,4.02-3.14,7.36-3.14,3.06,0,5.38,1.23,6.61,2.52Z"/>
      <path d="M111.86,78.69c0,10.7-5.04,18.19-13.9,18.19-3.13,0-5.86-1.23-7.56-2.79v10.49l-9.4,4.7V60.36h9.4v2.25c1.77-1.57,4.16-3,7.56-3,7.63,0,13.9,5.72,13.9,19.08Zm-9.54,.21c0-7.36-2.45-10.43-6.13-10.43-2.93,0-4.43,1.23-5.79,3v13.49c1.43,1.98,3.61,3.07,6.34,3.07,3.61,0,5.59-3.14,5.59-9.13Z"/>
    </g>
  </g>
</svg>
