<svg xmlns="http://www.w3.org/2000/svg" viewBox="0 0 160 160">
  <path fill="#ff0000" d="M155.7,61.58c1.16,9.49,.34,16.94,.06,19.52-3.12,28.35-23.3,64.84-60.07,70.04-2.92,.41-5.83,.61-8.7,.61-5.3,0-10.49-.67-15.51-1.92-9.44-.18-27.94-1.9-44.03-12.93,13.12,15.26,31.66,21.26,50.19,21.26s37.75-6.24,50.85-15.28c19.59-13.51,36.22-41.37,30.29-70.89-.75-3.72-1.8-7.19-3.08-10.42"/>
  <path fill="#0000ff" d="M86.84,1.84c-2.79,0-5.57,.16-8.32,.47,19.82,1.9,38.03,12.19,50.51,27.13,6.19,4.1,19.71,14.53,26.67,32.14-1.38-11.27-5.56-25.4-16.75-37.63C125.46,9.22,105.96,1.84,86.84,1.84"/>
  <path fill="#ff00ff" d="M129.03,29.44c4.04,4.83,7.47,10.14,10.17,15.81,16.4,34.45,2.63,75.97-24.44,94.08-14.73,9.86-30.42,10.25-38.19,10.46-.75,.02-1.86,.05-3.25,.05-.57,0-1.18,0-1.84-.02,5.01,1.24,10.21,1.92,15.51,1.92,2.87,0,5.78-.2,8.7-.61,36.77-5.2,56.94-41.69,60.07-70.04,.28-2.57,1.1-10.03-.06-19.52-6.95-17.61-20.48-28.03-26.67-32.14"/>
  <path fill="#00ff00" d="M71.92,1.99c-5,0-10.08,.55-15.16,1.69C18.56,12.32,1.49,50.19,.12,77.32c-.31,6.16-1.09,27.93,13.73,46.84,4.1,5.23,8.74,9.41,13.6,12.74-.76-.89-1.51-1.8-2.23-2.76-14.14-18.53-15.64-42.08-8.7-62.98,2.27-26.61,17.26-52.34,41.89-63.4,6.31-2.83,13.12-4.65,20.12-5.45-2.18-.21-4.39-.32-6.6-.32"/>
  <path fill="#ffff00" d="M16.51,71.16c-6.93,20.9-5.44,44.45,8.7,62.98,.73,.95,1.47,1.87,2.23,2.76,16.09,11.02,34.6,12.75,44.03,12.93-19.87-4.93-36.9-18.83-46.15-35.31-7.35-13.09-10.1-28.36-8.82-43.36"/>
  <path fill="#00ffff" d="M78.52,2.31c-7,.8-13.81,2.61-20.12,5.45-24.62,11.06-39.61,36.79-41.89,63.4,5.13-15.47,14.88-29.49,27.54-38.93,12.84-9.58,28.83-14.55,44.84-14.55,13.17,0,26.36,3.37,37.84,10.31,.55,.34,1.34,.82,2.3,1.46-12.49-14.94-30.7-25.24-50.51-27.13"/>
  <path fill="#ffffff" d="M88.9,17.68c-16.01,0-31.99,4.97-44.84,14.55-12.66,9.44-22.41,23.46-27.54,38.93-1.28,14.99,1.47,30.27,8.82,43.36,9.25,16.48,26.28,30.38,46.15,35.31,.66,.01,1.27,.02,1.84,.02,1.4,0,2.5-.03,3.25-.05,7.77-.21,23.46-.6,38.19-10.46,27.07-18.12,40.84-59.63,24.44-94.08-2.7-5.67-6.14-10.99-10.17-15.81-.96-.64-1.74-1.12-2.3-1.46-11.48-6.94-24.67-10.31-37.84-10.31"/>
</svg>
