<svg xmlns="http://www.w3.org/2000/svg" viewBox="0 0 160 160">
  <path fill="#ff0000" d="M148.94,51.72c2.53,10.91,2.23,22.48-.34,33.6,2,13.45,.75,26.61-4.21,37.35-4.93,10.67-12.5,16.72-16.46,19.82-10.49,8.19-24.48,13.77-39.41,15.57,.13,0,.26,0,.39,0,32.27,0,64.13-24.67,70.13-59.15,3.17-18.21-1.75-34.18-10.09-47.2"/>
  <path fill="#0000ff" d="M78.37,1.29c-25.25,0-55.73,11.14-66.27,37.81-.61,1.55-1.15,3.12-1.6,4.7,.3-.47,.61-.93,.92-1.4C23.85,24.12,43.92,14.51,63.76,12.47c5.42-1.54,10.67-2.16,15.6-2.16,16.07,0,28.85,6.56,33.82,9.11,11.67,5.99,26.04,17.14,35.77,32.3-1.22-5.25-3.09-10.35-5.68-15.16C126.4,5.17,87.63,1.75,84.34,1.51c-1.95-.14-3.94-.21-5.97-.21"/>
  <path fill="#ff00ff" d="M79.36,10.31c-4.93,0-10.18,.62-15.6,2.16,2.69-.28,5.39-.41,8.05-.41,6.35,0,12.56,.77,18.37,2.29,32.59,8.48,53.87,40.46,58.41,70.98,2.58-11.12,2.87-22.7,.34-33.6-9.72-15.17-24.1-26.31-35.77-32.3-4.96-2.55-17.74-9.11-33.82-9.11"/>
  <path fill="#00ff00" d="M10.5,43.81C-8.94,74.05,.33,114.55,24.27,137.74c15.18,14.71,34.73,20.97,53.72,20.97,3.54,0,7.05-.22,10.52-.64h-.09c-34.33-.26-60.8-28.44-69.15-59.4-9.31-16.94-14.03-36.72-8.77-54.87"/>
  <path fill="#ffff00" d="M148.6,85.33c-5.8,25.06-23.16,47.79-45.88,55.26-5.93,1.95-11.75,2.72-17.26,2.72-18.08,0-32.72-8.3-36.02-10.53-11.14-7.5-22.29-19.79-30.16-34.11,8.35,30.96,34.82,59.14,69.15,59.4h.09c14.93-1.81,28.92-7.38,39.41-15.57,3.97-3.1,11.53-9.15,16.46-19.82,4.96-10.74,6.21-23.9,4.21-37.35"/>
  <path fill="#00ffff" d="M63.76,12.47c-19.84,2.04-39.91,11.64-52.34,29.94-.31,.46-.62,.93-.92,1.4-5.26,18.14-.53,37.93,8.77,54.87-2.74-10.15-3.53-20.6-2-30.46,3.47-22.47,19.89-48.13,46.43-55.72l.06-.02"/>
  <path fill="#ffffff" d="M71.82,12.06c-2.67,0-5.36,.14-8.05,.41l-.06,.02c-26.55,7.59-42.96,33.25-46.43,55.72-1.52,9.86-.73,20.31,2,30.46,7.87,14.33,19.02,26.61,30.16,34.11,3.3,2.22,17.94,10.53,36.02,10.53,5.51,0,11.34-.77,17.26-2.72,22.71-7.47,40.08-30.21,45.88-55.26-4.54-30.52-25.82-62.5-58.41-70.98-5.81-1.51-12.02-2.29-18.37-2.29"/>
</svg>
