<svg xmlns="http://www.w3.org/2000/svg" viewBox="0 0 160 160">
	<g fill="currentColor">
		<path d="M127.99,79.99c-4.42,0-8.01,3.59-8.01,8.01v47.99c0,4.4-3.58,7.99-7.99,7.99H24.01c-4.4,0-7.99-3.58-7.99-7.99V48.01c0-4.4,3.58-7.99,7.99-7.99h47.99c4.42,0,8.01-3.59,8.01-8.01s-3.59-8.01-8.01-8.01H24.01C10.77,24,0,34.77,0,48.01v87.99c0,13.24,10.77,24.01,24.01,24.01H111.99c13.24,0,24.01-10.77,24.01-24.01v-47.99c0-4.42-3.59-8.01-8.01-8.01Z"/>
		<path d="M159.96,7.22c-.01-.11-.03-.23-.05-.34-.02-.15-.04-.29-.07-.44-.03-.13-.06-.26-.1-.39-.03-.12-.06-.25-.09-.37-.04-.13-.09-.25-.13-.38-.04-.12-.08-.24-.13-.36-.05-.12-.11-.23-.16-.35-.06-.12-.11-.24-.17-.36-.06-.11-.13-.22-.2-.33-.07-.11-.13-.23-.21-.34-.08-.12-.18-.24-.27-.36-.07-.09-.13-.18-.2-.27-.34-.41-.71-.78-1.12-1.12-.08-.07-.17-.13-.26-.19-.12-.09-.24-.19-.37-.27-.11-.07-.22-.13-.33-.2-.11-.07-.23-.14-.34-.2-.11-.06-.23-.11-.35-.17-.12-.06-.24-.12-.36-.17-.11-.05-.23-.08-.34-.12-.13-.05-.26-.1-.4-.14-.11-.03-.23-.06-.34-.09-.14-.04-.28-.07-.42-.1-.13-.03-.26-.04-.39-.06-.13-.02-.25-.04-.38-.06-.23-.02-.47-.03-.7-.04-.03,0-.06,0-.09,0h-47.99c-4.42,0-8.01,3.59-8.01,8.01s3.59,8.01,8.01,8.01h28.65L58.34,90.33c-3.13,3.13-3.13,8.2,0,11.33,1.56,1.56,3.61,2.35,5.66,2.35s4.1-.78,5.66-2.35L143.98,27.35v28.65c0,4.42,3.59,8.01,8.01,8.01s8.01-3.59,8.01-8.01V8.01c0-.27-.01-.53-.04-.79Z"/>
	</g>
</svg>
